<?xml version="1.0" encoding="utf-8"?>
<!-- Generator: Adobe Illustrator 28.0.0, SVG Export Plug-In . SVG Version: 6.00 Build 0)  -->
<svg version="1.1" id="Layer_1" xmlns="http://www.w3.org/2000/svg" xmlns:xlink="http://www.w3.org/1999/xlink" x="0px" y="0px"
	 viewBox="0 0 201.72 250" style="enable-background:new 0 0 201.72 250;" xml:space="preserve">
<style type="text/css">
	.st0{fill:#2C318C;}
	.st1{fill:#FEDA1E;}
</style>
<g>
	<path class="st0" d="M193.19,138.48v38.54c0,3.64-2.96,6.6-6.6,6.6h-8.51c-3.7,0-7.29,1.17-10.33,3.27
		c-9.49,6.56-20.99,10.41-33.38,10.41c-32.39,0-58.63-26.07-58.83-58.45c-0.2-32.61,26.27-59.2,58.83-59.2
		C166.8,79.65,193.19,106.04,193.19,138.48z"/>
	<path class="st1" d="M134.37,106.85c17.44,0,31.63,14.19,31.63,31.63v20.39h-0.56c-4,0-7.85,1.38-10.85,3.88
		c-5.29,4.42-11.69,6.94-18.51,7.3c-0.57,0.03-1.14,0.04-1.71,0.04c-8.67,0-16.76-3.45-22.79-9.72c-6.02-6.26-9.16-14.49-8.82-23.17
		c0.3-7.83,3.53-15.26,9.09-20.91c5.56-5.65,12.93-8.99,20.75-9.42C133.19,106.87,133.78,106.85,134.37,106.85L134.37,106.85
		 M134.36,100.18c-0.7,0-1.41,0.02-2.11,0.06c-19.62,1.06-35.39,17.09-36.16,36.73c-0.85,21.81,16.64,39.82,38.27,39.82
		c0.68,0,1.37-0.02,2.06-0.05c8.49-0.45,16.28-3.7,22.44-8.85c1.84-1.54,4.18-2.33,6.58-2.33h4.36c1.58,0,2.87-1.28,2.87-2.87v-24.2
		C172.66,117.37,155.48,100.18,134.36,100.18L134.36,100.18z"/>
	<path class="st0" d="M193.19,202.48v16.31c0,1.26-0.63,2.43-1.67,3.14c-16.27,11.19-35.96,17.74-57.16,17.74
		c-21.87,0-42.13-6.97-58.69-18.8c-1.75-1.25-2.13-3.71-0.81-5.41l7.93-10.25c1.24-1.6,3.51-1.95,5.16-0.79
		c13.13,9.27,29.15,14.72,46.41,14.72c18.56,0,35.67-6.3,49.31-16.86c1.11-0.86,2.2-1.75,3.27-2.67
		C189.39,197.49,193.19,199.24,193.19,202.48z"/>
	<path class="st0" d="M168.55,43.24l8.53,24.63c0.33,0.94-0.7,1.77-1.56,1.26c-6.5-3.87-13.58-6.86-21.09-8.78
		c-6.41-1.65-13.14-2.53-20.07-2.53c-21.57,0-41.19,8.51-55.68,22.34c-9.34,8.93-16.55,20.06-20.77,32.56
		c-0.32,0.95-1.66,0.96-2.01,0.02L46.74,87.9l-3.05-8.26c-0.15-0.42-0.55-0.7-1-0.7H9.41c-1.02,0-1.46-1.29-0.65-1.91l79.92-61.62
		c0.17-0.13,0.38-0.21,0.6-0.22l102.98-4.85c1.03-0.05,1.52,1.25,0.72,1.89L166.1,34.01c-0.35,0.28-0.48,0.75-0.34,1.18
		L168.55,43.24z"/>
	<path class="st1" d="M158.53,138.48c-13.75,0-24.9,11.15-24.9,24.91c0-13.75-11.15-24.91-24.9-24.91c13.75,0,24.9-11.15,24.9-24.9
		C133.63,127.33,144.78,138.48,158.53,138.48z"/>
</g>
</svg>
